<svg width="17" height="17" viewBox="0 0 17 17" fill="none" xmlns="http://www.w3.org/2000/svg">
<g clip-path="url(#clip0_125_268)">
<path d="M4.58908 8.1157C5.69847 8.1157 6.60112 6.98739 6.60112 5.60066C6.60112 4.21392 5.69847 3.08561 4.58908 3.08561C3.47969 3.08561 2.57704 4.21392 2.57704 5.60066C2.57704 6.98739 3.47969 8.1157 4.58908 8.1157ZM13.442 4.09163H7.80834C7.58601 4.09163 7.40593 4.31672 7.40593 4.59464V9.12172H1.77223V2.5826C1.77223 2.30469 1.59215 2.07959 1.36982 2.07959H0.565005C0.342675 2.07959 0.162598 2.30469 0.162598 2.5826V13.6488C0.162598 13.9267 0.342675 14.1518 0.565005 14.1518H1.36982C1.59215 14.1518 1.77223 13.9267 1.77223 13.6488V12.1398H14.6493V13.6488C14.6493 13.9267 14.8293 14.1518 15.0517 14.1518H15.8565C16.0788 14.1518 16.2589 13.9267 16.2589 13.6488V7.61269C16.2589 5.66793 14.9979 4.09163 13.442 4.09163Z" fill="#0061E0"/>
</g>
<defs>
<clipPath id="clip0_125_268">
<rect width="16.0963" height="16.0963" fill="white" transform="translate(0.162598 0.0673828)"/>
</clipPath>
</defs>
</svg>
