<svg width="17" height="17" viewBox="0 0 17 17" fill="none" xmlns="http://www.w3.org/2000/svg">
<path d="M15.4949 7.34894L15.1224 6.69817C15.1057 6.66948 15.0782 6.64858 15.0461 6.64004C15.014 6.6315 14.9799 6.63601 14.9511 6.65258L14.1541 7.11787L12.9233 3.71941C12.8583 3.51663 12.7306 3.33974 12.5585 3.21429C12.3864 3.08884 12.179 3.02132 11.966 3.02148H5.15496C4.60951 3.02148 4.12536 3.37359 3.95717 3.89389L2.78453 7.11944L1.986 6.65416C1.95721 6.63758 1.92303 6.63307 1.89093 6.64162C1.85883 6.65016 1.83141 6.67105 1.81466 6.69974L1.44212 7.34894C1.40754 7.40867 1.42797 7.48412 1.48771 7.5187L2.43714 8.07201L2.20921 8.70078C2.19035 8.75108 2.18092 8.80452 2.18092 8.85797V14.3313C2.18092 14.5781 2.3664 14.7778 2.59433 14.7778H3.65693C3.85028 14.7778 4.01847 14.6316 4.05934 14.4272L4.18038 13.8346H12.7567L12.8777 14.4272C12.9202 14.6316 13.0868 14.7778 13.2801 14.7778H14.3427C14.5707 14.7778 14.7562 14.5781 14.7562 14.3313V8.85797C14.7562 8.80452 14.7467 8.75108 14.7279 8.70078L14.4999 8.07201L15.4478 7.5187C15.4763 7.50223 15.4973 7.47521 15.5061 7.44346C15.5149 7.41171 15.5109 7.37777 15.4949 7.34894ZM4.57021 10.6122C4.22282 10.6122 3.94145 10.3308 3.94145 9.98345C3.94145 9.63606 4.22282 9.35469 4.57021 9.35469C4.9176 9.35469 5.19897 9.63606 5.19897 9.98345C5.19897 10.3308 4.9176 10.6122 4.57021 10.6122ZM10.6692 11.7911C10.6692 11.8603 10.6126 11.9169 10.5434 11.9169H6.39362C6.32446 11.9169 6.26787 11.8603 6.26787 11.7911V10.4707C6.26787 10.4016 6.32446 10.345 6.39362 10.345H7.02238C7.09155 10.345 7.14813 10.4016 7.14813 10.4707V11.0366H9.78893V10.4707C9.78893 10.4016 9.84552 10.345 9.91469 10.345H10.5434C10.6126 10.345 10.6692 10.4016 10.6692 10.4707V11.7911ZM12.3669 10.6122C12.0195 10.6122 11.7381 10.3308 11.7381 9.98345C11.7381 9.63606 12.0195 9.35469 12.3669 9.35469C12.7142 9.35469 12.9956 9.63606 12.9956 9.98345C12.9956 10.3308 12.7142 10.6122 12.3669 10.6122ZM3.87857 7.42125L5.02135 4.27901L5.02921 4.25857L5.03549 4.23814C5.05278 4.18627 5.09994 4.15168 5.15496 4.15168H11.8764L13.0616 7.42125H3.87857Z" fill="#0061E0"/>
</svg>
