<svg width="18" height="18" viewBox="0 0 18 18" fill="none" xmlns="http://www.w3.org/2000/svg">
<path d="M8.97167 1.80518C5.04241 1.80518 1.8457 5.00188 1.8457 8.93114C1.8457 12.8604 5.04241 16.0571 8.97167 16.0571C12.9009 16.0571 16.0976 12.8604 16.0976 8.93114C16.0976 5.00188 12.9009 1.80518 8.97167 1.80518ZM8.97167 14.6319C5.82841 14.6319 3.2709 12.0744 3.2709 8.93114C3.2709 5.78788 5.82841 3.23037 8.97167 3.23037C12.1149 3.23037 14.6724 5.78788 14.6724 8.93114C14.6724 12.0744 12.1149 14.6319 8.97167 14.6319Z" fill="#0061E0"/>
<path d="M9.68423 5.36865H8.25903V9.22665L10.6056 11.5732L11.6132 10.5656L9.68423 8.63662V5.36865Z" fill="#0061E0"/>
</svg>
