<svg width="13" height="13" viewBox="0 0 13 13" fill="none" xmlns="http://www.w3.org/2000/svg">
<path d="M1.19909 12.5492C1.19909 12.5492 0.187012 12.5492 0.187012 11.5371C0.187012 10.525 1.19909 7.48882 6.25946 7.48882C11.3198 7.48882 12.3319 10.525 12.3319 11.5371C12.3319 12.5492 11.3198 12.5492 11.3198 12.5492H1.19909ZM6.25946 6.47674C7.06471 6.47674 7.83699 6.15685 8.40639 5.58745C8.97579 5.01805 9.29568 4.24578 9.29568 3.44052C9.29568 2.63526 8.97579 1.86299 8.40639 1.29359C7.83699 0.724184 7.06471 0.404297 6.25946 0.404297C5.4542 0.404297 4.68193 0.724184 4.11252 1.29359C3.54312 1.86299 3.22323 2.63526 3.22323 3.44052C3.22323 4.24578 3.54312 5.01805 4.11252 5.58745C4.68193 6.15685 5.4542 6.47674 6.25946 6.47674V6.47674Z" fill="#4564F3"/>
</svg>
