<svg width="17" height="17" viewBox="0 0 17 17" fill="none" xmlns="http://www.w3.org/2000/svg">
<path d="M2.67757 7.89286C2.54416 7.89286 2.41622 7.83986 2.32189 7.74553C2.22756 7.6512 2.17456 7.52325 2.17456 7.38985V3.36678C2.17456 3.23337 2.22756 3.10543 2.32189 3.0111C2.41622 2.91677 2.54416 2.86377 2.67757 2.86377H6.70165C6.83505 2.86377 6.96299 2.91677 7.05733 3.0111C7.15166 3.10543 7.20465 3.23337 7.20465 3.36678V7.38985C7.20465 7.52325 7.15166 7.6512 7.05733 7.74553C6.96299 7.83986 6.83505 7.89286 6.70165 7.89286H2.67757ZM9.7197 7.89286C9.5863 7.89286 9.45835 7.83986 9.36402 7.74553C9.26969 7.6512 9.21669 7.52325 9.21669 7.38985V3.36678C9.21669 3.23337 9.26969 3.10543 9.36402 3.0111C9.45835 2.91677 9.5863 2.86377 9.7197 2.86377H13.7428C13.8762 2.86377 14.0041 2.91677 14.0985 3.0111C14.1928 3.10543 14.2458 3.23337 14.2458 3.36678V7.38985C14.2458 7.52325 14.1928 7.6512 14.0985 7.74553C14.0041 7.83986 13.8762 7.89286 13.7428 7.89286H9.7197ZM2.67757 14.935C2.54416 14.935 2.41622 14.882 2.32189 14.7877C2.22756 14.6933 2.17456 14.5654 2.17456 14.432V10.4079C2.17456 10.2745 2.22756 10.1466 2.32189 10.0522C2.41622 9.95789 2.54416 9.9049 2.67757 9.9049H6.70165C6.83505 9.9049 6.96299 9.95789 7.05733 10.0522C7.15166 10.1466 7.20465 10.2745 7.20465 10.4079V14.432C7.20465 14.5654 7.15166 14.6933 7.05733 14.7877C6.96299 14.882 6.83505 14.935 6.70165 14.935H2.67757ZM9.7197 14.935C9.5863 14.935 9.45835 14.882 9.36402 14.7877C9.26969 14.6933 9.21669 14.5654 9.21669 14.432V10.4079C9.21669 10.2745 9.26969 10.1466 9.36402 10.0522C9.45835 9.95789 9.5863 9.9049 9.7197 9.9049H13.7428C13.8762 9.9049 14.0041 9.95789 14.0985 10.0522C14.1928 10.1466 14.2458 10.2745 14.2458 10.4079V14.432C14.2458 14.5654 14.1928 14.6933 14.0985 14.7877C14.0041 14.882 13.8762 14.935 13.7428 14.935H9.7197Z" fill="#0061E0"/>
</svg>
