<svg width="17" height="17" viewBox="0 0 17 17" fill="none" xmlns="http://www.w3.org/2000/svg">
<g clip-path="url(#clip0_125_272)">
<path d="M1.42643 12.1393C1.42729 12.5617 1.51736 12.9791 1.69072 13.3642C1.86409 13.7494 2.11685 14.0935 2.43245 14.3742V15.6604C2.43245 15.7938 2.48544 15.9217 2.57978 16.016C2.67411 16.1104 2.80205 16.1634 2.93546 16.1634H3.94148C4.07488 16.1634 4.20282 16.1104 4.29716 16.016C4.39149 15.9217 4.44449 15.7938 4.44449 15.6604V15.1574H12.4926V15.6604C12.4926 15.7938 12.5456 15.9217 12.64 16.016C12.7343 16.1104 12.8622 16.1634 12.9956 16.1634H14.0017C14.1351 16.1634 14.263 16.1104 14.3573 16.016C14.4517 15.9217 14.5047 15.7938 14.5047 15.6604V14.3742C14.8203 14.0935 15.073 13.7494 15.2464 13.3642C15.4198 12.9791 15.5098 12.5617 15.5107 12.1393V10.6303H1.42643V12.1393ZM16.0137 8.11523H2.93546V2.24416C2.93574 2.11214 2.97512 1.98317 3.04862 1.8735C3.12212 1.76383 3.22645 1.67839 3.34846 1.62795C3.47046 1.57751 3.60467 1.56433 3.73415 1.59007C3.86364 1.61581 3.9826 1.67932 4.07603 1.77259L4.68184 2.37809C4.26906 3.31746 4.4426 4.23639 4.95284 4.88465L4.94749 4.88999C4.85352 4.98428 4.80075 5.11197 4.80075 5.24509C4.80075 5.3782 4.85352 5.50589 4.94749 5.60018L5.30306 5.95574C5.34977 6.00246 5.40523 6.03953 5.46626 6.06481C5.5273 6.0901 5.59272 6.10311 5.65878 6.10311C5.72485 6.10311 5.79027 6.0901 5.8513 6.06481C5.91234 6.03953 5.96779 6.00246 6.0145 5.95574L9.32714 2.64311C9.37386 2.5964 9.41092 2.54095 9.4362 2.47991C9.46149 2.41887 9.4745 2.35346 9.4745 2.28739C9.4745 2.22132 9.46149 2.15591 9.4362 2.09487C9.41092 2.03383 9.37386 1.97838 9.32714 1.93167L8.97157 1.5761C8.87725 1.48184 8.74936 1.42889 8.61601 1.42889C8.48266 1.42889 8.35476 1.48184 8.26044 1.5761L8.2551 1.58145C7.60684 1.07121 6.68854 0.897669 5.74854 1.31045L5.14304 0.70464C4.83857 0.400132 4.45063 0.192756 4.02829 0.108737C3.60596 0.0247192 3.16819 0.0678331 2.77036 0.232627C2.37252 0.39742 2.0325 0.67649 1.79328 1.03454C1.55406 1.3926 1.42639 1.81355 1.42643 2.24416V8.11523H0.92342C0.790013 8.11523 0.662071 8.16822 0.567738 8.26255C0.473406 8.35689 0.42041 8.48483 0.42041 8.61824L0.42041 9.12124C0.42041 9.25465 0.473406 9.38259 0.567738 9.47693C0.662071 9.57126 0.790013 9.62425 0.92342 9.62425H16.0137C16.1471 9.62425 16.2751 9.57126 16.3694 9.47693C16.4637 9.38259 16.5167 9.25465 16.5167 9.12124V8.61824C16.5167 8.48483 16.4637 8.35689 16.3694 8.26255C16.2751 8.16822 16.1471 8.11523 16.0137 8.11523Z" fill="#0061E0"/>
</g>
<defs>
<clipPath id="clip0_125_272">
<rect width="16.0963" height="16.0963" fill="white" transform="translate(0.42041 0.0673828)"/>
</clipPath>
</defs>
</svg>
